<svg xmlns="http://www.w3.org/2000/svg" width="262.48" height="29.472" viewBox="0 0 1042 117">
  <defs>
    <style>
      .cls-1, .cls-3 {
        fill: #6fac0f;
      }

      .cls-1, .cls-2 {
        fill-rule: evenodd;
      }

      .cls-2, .cls-4 {
        fill: #3d3c3c;
      }

      .cls-4 {
        font-size: 62.5px;
        font-family: "Century Gothic";
        font-weight: 700;
      }
    </style>
  </defs>
  <path class="cls-1" d="M17,112.316L85.7,17.987S96.114,4.758,107,5s19.51,9.042,28.168,22.557,22.672,30.76,22.672,30.76S156.1,29.58,181.2,16.62s53.864-9.655,69.39-10.253,37.786,0,37.786,0S265,12.49,258.145,20.722a147.209,147.209,0,0,0-10.3,13.671H224.481S205.706,34.32,197,41.911s-8.854,21.586-4.809,28.025,10.482,15.519,24.733,15.721,40.534,0,40.534,0-12.992-28.125-1.374-50.582S294.8,6.652,306.924,5.684s68.015,0,68.015,0L355.7,35.076H317.229s-14.66-1.8-23.359,3.418-11.679,9.57-11.679,9.57h67.328L334.405,70.62H282.191s5.228,8.841,14.427,12.3S377,86.342,377,86.342L359.137,113l-46.717-.684s-16.811-.715-26.794-4.1-14.428-8.2-14.428-8.2l-15.114,12.3-39.847-.683s-17.4-1.613-22.672-3.418a45.765,45.765,0,0,1-6.87-2.734L194.252,113l-105.8-.684,19.237-27.341h27.481L106.313,41.911l-50.153,70.4H17Z"/>
  <g>
    <path class="cls-2" d="M412.974,54V70H397.22V50Z"/>
    <path class="cls-2" d="M397,58h16v56H397V58Z"/>
    <rect class="cls-3" x="397" y="4" width="16" height="41"/>
    <path class="cls-1" d="M412.974,50L397.22,45V31h15.754V50Z"/>
  </g>
  <text id="CORPORATION" class="cls-4" x="431.281" y="107.964">CORPORATION</text>
  <text id="SOFTWARE" class="cls-4" x="431.281" y="53.277">SOFTWARE</text>
</svg>
